HIERARCHY
ROOT mixamorig:Hips
{
	OFFSET 0.000000 201.639420 0.000000
	CHANNELS 6 Xposition Yposition Zposition Xrotation Yrotation Zrotation
	JOINT mixamorig:Spine
	{
		OFFSET 0.006200 19.524994 -2.481800
		CHANNELS 3 Xrotation Yrotation Zrotation
		JOINT mixamorig:Spine1
		{
			OFFSET -0.000900 22.835007 -2.825400
			CHANNELS 3 Xrotation Yrotation Zrotation
			JOINT mixamorig:Spine2
			{
				OFFSET -0.020600 26.552490 -3.193300
				CHANNELS 3 Xrotation Yrotation Zrotation
				JOINT mixamorig:Neck
				{
					OFFSET -0.060000 30.701813 1.352200
					CHANNELS 3 Xrotation Yrotation Zrotation
					JOINT mixamorig:Head
					{
						OFFSET -0.087200 22.547607 3.670900
						CHANNELS 3 Xrotation Yrotation Zrotation
						JOINT mixamorig:HeadTop_End
						{
							OFFSET -0.830600 40.355194 7.893500
							CHANNELS 3 Xrotation Yrotation Zrotation
							End Site
							{
								OFFSET 0.000000 30.592346 0.000000
							}
						}
						JOINT mixamorig:RightEye
						{
							OFFSET -6.302100 18.118591 16.197100
							CHANNELS 3 Xrotation Yrotation Zrotation
							End Site
							{
								OFFSET 0.000000 30.592346 0.000000
							}
						}
						JOINT mixamorig:LeftEye
						{
							OFFSET 6.741500 18.382690 16.401899
							CHANNELS 3 Xrotation Yrotation Zrotation
							End Site
							{
								OFFSET 0.000000 30.592346 0.000000
							}
						}
					}
				}
				JOINT mixamorig:LeftShoulder
				{
					OFFSET 11.924900 18.230499 1.425400
					CHANNELS 3 Xrotation Yrotation Zrotation
					JOINT mixamorig:LeftArm
					{
						OFFSET 25.435989 -0.697632 -5.229300
						CHANNELS 3 Xrotation Yrotation Zrotation
						JOINT mixamorig:LeftForeArm
						{
							OFFSET 54.684776 0.000000 0.000000
							CHANNELS 3 Xrotation Yrotation Zrotation
							JOINT mixamorig:LeftHand
							{
								OFFSET 55.098175 0.000000 0.000000
								CHANNELS 3 Xrotation Yrotation Zrotation
								JOINT mixamorig:LeftHandMiddle1
								{
									OFFSET 23.369751 0.000000 0.000000
									CHANNELS 3 Xrotation Yrotation Zrotation
									JOINT mixamorig:LeftHandMiddle2
									{
										OFFSET 6.378677 0.000000 0.000000
										CHANNELS 3 Xrotation Yrotation Zrotation
										JOINT mixamorig:LeftHandMiddle3
										{
											OFFSET 6.148331 0.000000 0.000000
											CHANNELS 3 Xrotation Yrotation Zrotation
											JOINT mixamorig:LeftHandMiddle4
											{
												OFFSET 6.582504 0.000000 0.000000
												CHANNELS 3 Xrotation Yrotation Zrotation
												End Site
												{
													OFFSET -1.168900 6.395691 1.028606
												}
											}
										}
									}
								}
								JOINT mixamorig:LeftHandThumb1
								{
									OFFSET 7.235672 -3.848206 5.434273
									CHANNELS 3 Xrotation Yrotation Zrotation
									JOINT mixamorig:LeftHandThumb2
									{
										OFFSET 6.568451 -3.792297 3.792300
										CHANNELS 3 Xrotation Yrotation Zrotation
										JOINT mixamorig:LeftHandThumb3
										{
											OFFSET 6.063080 -3.500519 3.500518
											CHANNELS 3 Xrotation Yrotation Zrotation
											JOINT mixamorig:LeftHandThumb4
											{
												OFFSET 4.793182 -2.767334 2.767349
												CHANNELS 3 Xrotation Yrotation Zrotation
												End Site
												{
													OFFSET 0.101639 6.054260 1.275483
												}
											}
										}
									}
								}
								JOINT mixamorig:LeftHandIndex1
								{
									OFFSET 23.101074 -0.309540 4.992809
									CHANNELS 3 Xrotation Yrotation Zrotation
									JOINT mixamorig:LeftHandIndex2
									{
										OFFSET 6.226883 0.000000 0.000000
										CHANNELS 3 Xrotation Yrotation Zrotation
										JOINT mixamorig:LeftHandIndex3
										{
											OFFSET 6.094330 0.000000 0.000000
											CHANNELS 3 Xrotation Yrotation Zrotation
											JOINT mixamorig:LeftHandIndex4
											{
												OFFSET 5.482605 0.000000 0.000000
												CHANNELS 3 Xrotation Yrotation Zrotation
												End Site
												{
													OFFSET -1.427902 5.233032 0.797164
												}
											}
										}
									}
								}
								JOINT mixamorig:LeftHandRing1
								{
									OFFSET 22.299240 0.021149 -3.964172
									CHANNELS 3 Xrotation Yrotation Zrotation
									JOINT mixamorig:LeftHandRing2
									{
										OFFSET 6.321869 0.000000 0.000000
										CHANNELS 3 Xrotation Yrotation Zrotation
										JOINT mixamorig:LeftHandRing3
										{
											OFFSET 5.899796 0.000000 0.000000
											CHANNELS 3 Xrotation Yrotation Zrotation
											JOINT mixamorig:LeftHandRing4
											{
												OFFSET 6.517899 0.000000 0.000000
												CHANNELS 3 Xrotation Yrotation Zrotation
												End Site
												{
													OFFSET -1.637299 6.232208 0.980890
												}
											}
										}
									}
								}
								JOINT mixamorig:LeftHandPinky1
								{
									OFFSET 20.463791 -0.302338 -8.562233
									CHANNELS 3 Xrotation Yrotation Zrotation
									JOINT mixamorig:LeftHandPinky2
									{
										OFFSET 6.908646 0.000000 0.000000
										CHANNELS 3 Xrotation Yrotation Zrotation
										JOINT mixamorig:LeftHandPinky3
										{
											OFFSET 4.622849 0.000000 0.000000
											CHANNELS 3 Xrotation Yrotation Zrotation
											JOINT mixamorig:LeftHandPinky4
											{
												OFFSET 5.216080 0.000000 0.000000
												CHANNELS 3 Xrotation Yrotation Zrotation
												End Site
												{
													OFFSET -0.606308 5.116241 0.814926
												}
											}
										}
									}
								}
							}
						}
					}
				}
				JOINT mixamorig:RightShoulder
				{
					OFFSET -12.001300 18.284088 1.348900
					CHANNELS 3 Xrotation Yrotation Zrotation
					JOINT mixamorig:RightArm
					{
						OFFSET -25.308500 -0.751312 -5.164599
						CHANNELS 3 Xrotation Yrotation Zrotation
						JOINT mixamorig:RightForeArm
						{
							OFFSET -54.684429 0.000000 0.000000
							CHANNELS 3 Xrotation Yrotation Zrotation
							JOINT mixamorig:RightHand
							{
								OFFSET -55.150291 0.000000 0.000000
								CHANNELS 3 Xrotation Yrotation Zrotation
								JOINT mixamorig:RightHandMiddle1
								{
									OFFSET -23.317566 0.000000 0.000000
									CHANNELS 3 Xrotation Yrotation Zrotation
									JOINT mixamorig:RightHandMiddle2
									{
										OFFSET -6.378403 0.000000 0.000000
										CHANNELS 3 Xrotation Yrotation Zrotation
										JOINT mixamorig:RightHandMiddle3
										{
											OFFSET -6.148193 0.000000 0.000000
											CHANNELS 3 Xrotation Yrotation Zrotation
											JOINT mixamorig:RightHandMiddle4
											{
												OFFSET -6.583389 0.000000 0.000000
												CHANNELS 3 Xrotation Yrotation Zrotation
												End Site
												{
													OFFSET 1.171692 6.395905 1.029786
												}
											}
										}
									}
								}
								JOINT mixamorig:RightHandThumb1
								{
									OFFSET -7.190521 -3.860474 5.435846
									CHANNELS 3 Xrotation Yrotation Zrotation
									JOINT mixamorig:RightHandThumb2
									{
										OFFSET -6.567429 -3.791718 3.791708
										CHANNELS 3 Xrotation Yrotation Zrotation
										JOINT mixamorig:RightHandThumb3
										{
											OFFSET -6.062469 -3.500153 3.500166
											CHANNELS 3 Xrotation Yrotation Zrotation
											JOINT mixamorig:RightHandThumb4
											{
												OFFSET -4.792618 -2.767029 2.767022
												CHANNELS 3 Xrotation Yrotation Zrotation
												End Site
												{
													OFFSET -0.100327 6.053253 1.276754
												}
											}
										}
									}
								}
								JOINT mixamorig:RightHandIndex1
								{
									OFFSET -23.048981 -0.310791 4.992554
									CHANNELS 3 Xrotation Yrotation Zrotation
									JOINT mixamorig:RightHandIndex2
									{
										OFFSET -6.227539 0.000000 0.000000
										CHANNELS 3 Xrotation Yrotation Zrotation
										JOINT mixamorig:RightHandIndex3
										{
											OFFSET -6.095047 0.000000 0.000000
											CHANNELS 3 Xrotation Yrotation Zrotation
											JOINT mixamorig:RightHandIndex4
											{
												OFFSET -5.484772 0.000000 0.000000
												CHANNELS 3 Xrotation Yrotation Zrotation
												End Site
												{
													OFFSET 1.420593 5.237305 0.797056
												}
											}
										}
									}
								}
								JOINT mixamorig:RightHandRing1
								{
									OFFSET -22.246323 0.020569 -3.963762
									CHANNELS 3 Xrotation Yrotation Zrotation
									JOINT mixamorig:RightHandRing2
									{
										OFFSET -6.322128 0.000000 0.000000
										CHANNELS 3 Xrotation Yrotation Zrotation
										JOINT mixamorig:RightHandRing3
										{
											OFFSET -5.900024 0.000000 0.000000
											CHANNELS 3 Xrotation Yrotation Zrotation
											JOINT mixamorig:RightHandRing4
											{
												OFFSET -6.518356 0.000000 0.000000
												CHANNELS 3 Xrotation Yrotation Zrotation
												End Site
												{
													OFFSET 1.636398 6.232697 0.982186
												}
											}
										}
									}
								}
								JOINT mixamorig:RightHandPinky1
								{
									OFFSET -20.411011 -0.303314 -8.561701
									CHANNELS 3 Xrotation Yrotation Zrotation
									JOINT mixamorig:RightHandPinky2
									{
										OFFSET -6.907349 0.000000 0.000000
										CHANNELS 3 Xrotation Yrotation Zrotation
										JOINT mixamorig:RightHandPinky3
										{
											OFFSET -4.623840 0.000000 0.000000
											CHANNELS 3 Xrotation Yrotation Zrotation
											JOINT mixamorig:RightHandPinky4
											{
												OFFSET -5.218353 0.000000 0.000000
												CHANNELS 3 Xrotation Yrotation Zrotation
												End Site
												{
													OFFSET 0.602097 5.118835 0.816273
												}
											}
										}
									}
								}
							}
						}
					}
				}
			}
		}
	}
	JOINT mixamorig:LeftUpLeg
	{
		OFFSET 18.168400 -13.561905 -0.039000
		CHANNELS 3 Xrotation Yrotation Zrotation
		JOINT mixamorig:LeftLeg
		{
			OFFSET 0.577358 -80.825211 -3.695000
			CHANNELS 3 Xrotation Yrotation Zrotation
			JOINT mixamorig:LeftFoot
			{
				OFFSET -0.577356 -83.370262 -6.520700
				CHANNELS 3 Xrotation Yrotation Zrotation
				JOINT mixamorig:LeftToeBase
				{
					OFFSET 0.750401 -20.798306 25.135401
					CHANNELS 3 Xrotation Yrotation Zrotation
					JOINT mixamorig:LeftToe_End
					{
						OFFSET -0.000500 0.001200 19.917799
						CHANNELS 3 Xrotation Yrotation Zrotation
						End Site
						{
							OFFSET 0.000000 19.917805 0.000000
						}
					}
				}
			}
		}
	}
	JOINT mixamorig:RightUpLeg
	{
		OFFSET -18.162500 -13.585098 -0.041000
		CHANNELS 3 Xrotation Yrotation Zrotation
		JOINT mixamorig:RightLeg
		{
			OFFSET -0.595024 -80.945297 -3.631900
			CHANNELS 3 Xrotation Yrotation Zrotation
			JOINT mixamorig:RightFoot
			{
				OFFSET 0.595024 -83.218193 -6.561200
				CHANNELS 3 Xrotation Yrotation Zrotation
				JOINT mixamorig:RightToeBase
				{
					OFFSET -0.753601 -20.807106 25.115000
					CHANNELS 3 Xrotation Yrotation Zrotation
					JOINT mixamorig:RightToe_End
					{
						OFFSET 0.000299 0.001700 19.918200
						CHANNELS 3 Xrotation Yrotation Zrotation
						End Site
						{
							OFFSET 0.000000 19.918203 0.000000
						}
					}
				}
			}
		}
	}
}
MOTION
Frames: 4
Frame Time: 0.033333
1.647103 121.485809 -49.202354 -26.870897 -0.428748 -1.907961 33.216938 0.333798 1.074605 1.736923 -0.200725 1.939635 1.739372 -0.084639 1.945560 13.403037 0.065965 -2.442159 -27.270234 1.495026 -1.223376 -0.000000 0.000000 -0.000000 -0.000000 0.000000 -0.000000 -0.000000 0.000000 -0.000000 -0.016196 6.158627 -6.418873 24.908786 -38.312508 -51.073006 0.000088 -78.493893 0.000082 27.163201 -6.289279 33.867910 0.002228 0.175537 -1.454600 0.005612 0.278478 -2.308206 0.001389 0.138291 -1.146106 0.000004 0.000000 -0.000000 9.116472 -2.777052 -7.784345 4.838098 13.365723 2.990604 -0.088145 4.255741 3.752676 -0.000002 0.000000 -0.000001 0.002266 0.177466 -1.470585 0.005532 0.276541 -2.292235 0.001389 0.138291 -1.146114 0.000001 0.000001 0.000001 0.002270 0.177464 -1.470584 0.005537 0.276552 -2.292229 0.001396 0.138294 -1.146109 0.000001 0.000001 0.000003 0.088433 4.230851 -0.963480 -0.010072 -3.777775 -2.802746 0.001382 0.138296 -1.146107 -0.000001 -0.000001 -0.000000 1.108063 1.473090 2.488576 15.138500 15.635269 66.522655 -0.000161 86.916425 0.000197 30.807479 0.800678 -17.349749 0.010822 -0.388446 3.189383 0.004148 -0.240626 1.974767 0.001038 -0.120321 0.987400 0.000000 0.000001 0.000002 11.831305 1.996733 7.072243 23.190118 -10.299806 8.719647 7.817768 -1.589852 1.119439 -0.000001 -0.000000 -0.000002 0.010824 -0.388446 3.189379 0.004153 -0.240628 1.974771 0.001027 -0.120319 0.987403 0.000007 -0.000002 0.000000 0.010822 -0.388455 3.189379 0.004154 -0.240623 1.974772 0.001030 -0.120310 0.987400 -0.000004 0.000000 0.000002 0.010821 -0.388443 3.189382 0.004142 -0.240624 1.974773 0.001030 -0.120313 0.987399 -0.000002 -0.000001 0.000000 -67.360179 2.907197 5.636932 90.477597 1.202182 4.206218 10.075518 -0.062004 1.628909 -6.304364 0.047218 -0.938035 -0.000000 0.000000 -0.000000 -67.139715 -8.602105 -12.816812 92.791371 -1.514056 -2.675915 5.150752 0.218206 -7.262661 -5.848506 -0.057171 2.101098 -0.000000 -0.000001 0.000000 
1.681036 121.477112 -49.274666 -26.865458 -0.438382 -1.934158 33.183883 0.351412 1.091241 1.732387 -0.202993 1.917659 1.734795 -0.087996 1.923668 13.414947 0.065587 -2.407170 -27.277149 1.417843 -1.128777 0.000000 -0.000000 -0.000000 0.000000 -0.000000 -0.000000 0.000000 -0.000000 -0.000000 -0.008577 6.075709 -6.292494 24.840411 -38.254735 -51.230148 0.000031 -78.584318 0.000043 27.109986 -6.321734 33.858272 0.002227 0.175537 -1.454601 0.005612 0.278474 -2.308211 0.001389 0.138292 -1.146106 -0.000001 -0.000002 -0.000001 9.116473 -2.777052 -7.784345 4.838098 13.365723 2.990609 -0.088142 4.255742 3.752676 0.000001 0.000000 -0.000001 0.002264 0.177467 -1.470584 0.005540 0.276543 -2.292236 0.001391 0.138292 -1.146110 0.000001 0.000001 -0.000001 0.002268 0.177464 -1.470585 0.005530 0.276550 -2.292233 0.001393 0.138296 -1.146108 -0.000002 -0.000000 0.000001 0.088435 4.230851 -0.963478 -0.010073 -3.777775 -2.802748 0.001382 0.138296 -1.146109 -0.000004 -0.000001 -0.000000 1.112772 1.508860 2.607802 15.188121 15.606253 66.420441 0.000363 86.957433 -0.000367 30.763360 0.831917 -17.346493 0.010825 -0.388447 3.189381 0.004152 -0.240625 1.974769 0.001031 -0.120321 0.987400 0.000006 0.000000 -0.000000 11.831307 1.996733 7.072247 23.190113 -10.299805 8.719642 7.817768 -1.589853 1.119442 0.000000 0.000000 -0.000002 0.010822 -0.388446 3.189379 0.004153 -0.240627 1.974768 0.001023 -0.120318 0.987401 0.000002 -0.000001 -0.000001 0.010826 -0.388456 3.189379 0.004156 -0.240623 1.974769 0.001031 -0.120309 0.987399 -0.000000 -0.000000 0.000000 0.010822 -0.388444 3.189381 0.004145 -0.240626 1.974772 0.001035 -0.120311 0.987397 0.000001 -0.000001 0.000001 -67.552470 2.842717 5.564821 90.392814 1.235523 4.295838 11.113941 -0.058360 1.332695 -7.201994 0.046977 -0.753877 -0.000000 0.000000 0.000000 -67.032125 -8.635678 -12.805250 92.735486 -1.442931 -2.682053 4.746749 0.239974 -7.164625 -5.459559 -0.050741 2.023364 0.000000 -0.000001 -0.000000 
1.696842 121.562241 -49.476898 -26.905975 -0.431940 -1.930294 33.123771 0.338800 1.123100 1.669226 -0.203469 1.856099 1.671517 -0.091464 1.862303 13.448858 0.060851 -2.347187 -27.219347 1.337699 -1.069600 -0.000000 0.000000 0.000000 -0.000000 0.000000 0.000000 -0.000000 0.000000 0.000000 -0.003873 6.000713 -6.117859 24.826701 -38.220349 -51.369282 0.000016 -78.661458 0.000008 27.051956 -6.325664 33.843314 0.002221 0.175536 -1.454600 0.005617 0.278476 -2.308212 0.001390 0.138289 -1.146107 -0.000002 0.000001 0.000001 9.116474 -2.777049 -7.784343 4.838097 13.365726 2.990606 -0.088143 4.255741 3.752675 0.000002 -0.000000 0.000000 0.002268 0.177468 -1.470585 0.005530 0.276540 -2.292239 0.001394 0.138292 -1.146112 -0.000000 0.000000 -0.000001 0.002265 0.177465 -1.470584 0.005538 0.276550 -2.292229 0.001391 0.138296 -1.146110 -0.000002 -0.000000 0.000002 0.088432 4.230851 -0.963480 -0.010073 -3.777775 -2.802746 0.001379 0.138295 -1.146105 -0.000002 0.000000 0.000000 1.114354 1.516052 2.902618 15.300991 15.590776 66.181801 -0.000554 86.929320 0.000622 30.689013 0.852706 -17.326827 0.010822 -0.388445 3.189380 0.004147 -0.240625 1.974769 0.001028 -0.120320 0.987403 -0.000004 -0.000000 -0.000000 11.831308 1.996733 7.072246 23.190111 -10.299805 8.719642 7.817769 -1.589852 1.119437 -0.000001 -0.000000 -0.000002 0.010822 -0.388444 3.189376 0.004150 -0.240628 1.974771 0.001024 -0.120317 0.987400 -0.000003 -0.000001 0.000001 0.010828 -0.388455 3.189377 0.004150 -0.240624 1.974772 0.001023 -0.120308 0.987402 0.000000 0.000001 0.000001 0.010826 -0.388443 3.189380 0.004151 -0.240626 1.974771 0.001032 -0.120313 0.987401 0.000003 0.000000 -0.000002 -67.182704 2.936857 5.529165 90.219538 1.270696 4.373853 9.979527 -0.071290 1.283097 -6.231037 0.051244 -0.727898 -0.000000 -0.000000 0.000000 -66.504261 -8.739515 -12.815328 92.535820 -1.288995 -2.651471 3.058810 0.338104 -7.136104 -4.376407 -0.006941 0.900609 0.000000 0.000001 -0.000000 
1.700270 121.674362 -49.694859 -26.957973 -0.417257 -1.898698 33.051302 0.311549 1.183047 1.562724 -0.199447 1.737792 1.564828 -0.093911 1.744194 13.504044 0.050843 -2.256152 -27.096296 1.259100 -1.059106 0.000000 -0.000000 0.000000 0.000000 -0.000000 0.000000 0.000000 -0.000000 0.000000 -0.006472 5.936733 -5.873275 24.855193 -38.231540 -51.507266 -0.000033 -78.684483 -0.000041 26.974227 -6.296024 33.824671 0.002228 0.175537 -1.454600 0.005614 0.278476 -2.308210 0.001389 0.138291 -1.146106 0.000001 0.000001 0.000001 9.116477 -2.777051 -7.784344 4.838100 13.365727 2.990607 -0.088146 4.255742 3.752678 0.000001 -0.000000 0.000001 0.002271 0.177467 -1.470584 0.005535 0.276541 -2.292235 0.001389 0.138292 -1.146112 0.000002 0.000000 -0.000000 0.002274 0.177465 -1.470584 0.005532 0.276551 -2.292231 0.001396 0.138295 -1.146111 -0.000003 -0.000001 0.000002 0.088434 4.230851 -0.963478 -0.010073 -3.777774 -2.802747 0.001379 0.138293 -1.146107 -0.000004 -0.000002 0.000000 1.111120 1.471623 3.414244 15.490895 15.592357 65.767120 0.000144 86.813002 -0.000216 30.584631 0.866591 -17.291807 0.010817 -0.388447 3.189382 0.004150 -0.240626 1.974767 0.001038 -0.120321 0.987399 0.000003 0.000001 0.000002 11.831301 1.996733 7.072245 23.190116 -10.299806 8.719645 7.817768 -1.589852 1.119442 0.000001 -0.000000 0.000002 0.010820 -0.388447 3.189377 0.004155 -0.240629 1.974771 0.001028 -0.120319 0.987404 -0.000001 0.000000 -0.000001 0.010816 -0.388453 3.189377 0.004158 -0.240623 1.974770 0.001025 -0.120309 0.987399 0.000002 -0.000001 -0.000000 0.010823 -0.388444 3.189381 0.004144 -0.240626 1.974770 0.001033 -0.120311 0.987394 0.000002 -0.000001 0.000002 -66.567119 3.186656 5.498126 90.042766 1.374126 4.445910 7.671304 -0.083277 1.697682 -4.093479 0.048275 -1.052670 0.000000 0.000000 -0.000000 -65.859928 -8.900468 -12.875041 92.293204 -1.047337 -2.622164 0.963231 0.467551 -7.254160 -3.448291 0.000002 0.000005 -0.000000 0.000001 -0.000000 
